HIERARCHY
ROOT Hips
{
  OFFSET 47.1953 84.0183 -1.88948
  CHANNELS 6 Xposition Yposition Zposition Zrotation Xrotation Yrotation
  JOINT spine
  {
    OFFSET 0 6.24479 0.359107
    CHANNELS 3 Zrotation Xrotation Yrotation
    JOINT spine1
    {
      OFFSET 0 9.06941 0
      CHANNELS 3 Zrotation Xrotation Yrotation
      JOINT spine2
      {
        OFFSET 0 8.69014 0
        CHANNELS 3 Zrotation Xrotation Yrotation
        JOINT Neck
        {
          OFFSET 0 22.3112 1.06372
          CHANNELS 3 Zrotation Xrotation Yrotation
          JOINT Head
          {
            OFFSET 0 6.74081 0
            CHANNELS 3 Zrotation Xrotation Yrotation
            End Site
            {
              OFFSET 0 16.3165 -5.38097
            }
          }
        }
        JOINT RightShoulder
        {
          OFFSET -3.65916 9.38468 -0.509514
          CHANNELS 3 Zrotation Xrotation Yrotation
          JOINT RightArm
          {
            OFFSET 0 12.3089 0
            CHANNELS 3 Zrotation Xrotation Yrotation
            JOINT RightArmRoll
            {
              OFFSET 0 6.21375 0
              CHANNELS 3 Zrotation Xrotation Yrotation
              JOINT RightForeArm
              {
                OFFSET 0 18.0985 0
                CHANNELS 3 Zrotation Xrotation Yrotation
                JOINT RightForeArmRoll
                {
                  OFFSET 0 6.97279 0
                  CHANNELS 3 Zrotation Xrotation Yrotation
                  JOINT RightHand
                  {
                    OFFSET 0 13.9929 0
                    CHANNELS 3 Zrotation Xrotation Yrotation
                    End Site
                    {
                      OFFSET 0 0 0
                    }
                  }
                }
              }
            }
          }
        }
        JOINT LeftShoulder
        {
          OFFSET 3.65916 9.38468 -0.509514
          CHANNELS 3 Zrotation Xrotation Yrotation
          JOINT LeftArm
          {
            OFFSET 0 12.3089 0
            CHANNELS 3 Zrotation Xrotation Yrotation
            JOINT LeftArmRoll
            {
              OFFSET 0 6.21375 0
              CHANNELS 3 Zrotation Xrotation Yrotation
              JOINT LeftForeArm
              {
                OFFSET 0 18.0985 0
                CHANNELS 3 Zrotation Xrotation Yrotation
                JOINT LeftForeArmRoll
                {
                  OFFSET 0 6.97279 0
                  CHANNELS 3 Zrotation Xrotation Yrotation
                  JOINT LeftHand
                  {
                    OFFSET 0 13.9929 0
                    CHANNELS 3 Zrotation Xrotation Yrotation
                    End Site
                    {
                      OFFSET 0 0 0
                    }
                  }
                }
              }
            }
          }
        }
      }
    }
  }
  JOINT RightUpLeg
  {
    OFFSET -5.53515 -1.015 -0.851454
    CHANNELS 3 Zrotation Xrotation Yrotation
    JOINT RightUpLegRoll
    {
      OFFSET 0 16.4075 0
      CHANNELS 3 Zrotation Xrotation Yrotation
      JOINT RightLeg
      {
        OFFSET 0 -20.3181 0
        CHANNELS 3 Zrotation Xrotation Yrotation
        JOINT RightLegRoll
        {
          OFFSET 0 20.3846 0
          CHANNELS 3 Zrotation Xrotation Yrotation
          JOINT RightFoot
          {
            OFFSET 0 16.9668 0
            CHANNELS 3 Zrotation Xrotation Yrotation
            JOINT RightToeBase
            {
              OFFSET 0 14.1834 0
              CHANNELS 3 Zrotation Xrotation Yrotation
              End Site
              {
                OFFSET 0.0060118 6.8689 -0.791746
              }
            }
          }
        }
      }
    }
  }
  JOINT LeftUpLeg
  {
    OFFSET 5.53515 -1.015 -0.851454
    CHANNELS 3 Zrotation Xrotation Yrotation
    JOINT LeftUpLegRoll
    {
      OFFSET 0 16.4076 0
      CHANNELS 3 Zrotation Xrotation Yrotation
      JOINT LeftLeg
      {
        OFFSET 0 20.3181 0
        CHANNELS 3 Zrotation Xrotation Yrotation
        JOINT LeftLegRoll
        {
          OFFSET 0 20.5731 0
          CHANNELS 3 Zrotation Xrotation Yrotation
          JOINT LeftFoot
          {
            OFFSET 0 16.7783 0
            CHANNELS 3 Zrotation Xrotation Yrotation
            JOINT LeftToeBase
            {
              OFFSET 0 14.1834 0
              CHANNELS 3 Zrotation Xrotation Yrotation
              End Site
              {
                OFFSET -0.0269423 6.8689 -0.791746
              }
            }
          }
        }
      }
    }
  }
}
MOTION
Frames: 10
Frame Time: 0.00208333
47.6608 93.021 1.54031 1.0042 5.24716 -1.97866 -0.134757 -2.23793 0.0493571 -0.267691 -0.473181 0.110951 -0.269075 1.17189 0.11545 -0.00332368 -4.59368 0.17769 -0.232914 8.68222 0.176298 62.6311 -6.59752 -4.22759 114.423 4.16207 13.2525 -2.30072e-006 3.91737e-007 -2.24468e-006 6.55909 14.3957 -1.70054 -1.4879e-006 1.94486e-006 -3 8.02887 -4.95141 0.697668 -58.6295 -10.88 6.77584 -120.238 3.75649 -14.7066 -7.8023e-015 1.98785e-016 -3.18055e-015 -1.82307 19.8013 0.881103 6.06612e-006 1.00327e-006 2.99998 -8.02984 -4.95156 -0.697671 174.586 11.4028 1.15201 180 7.01567e-015 179.014 -179.626 14.7624 179.014 1.84119e-006 -1.13921e-006 -0.0176527 -16.857 65.8177 17.9017 8.13649 25.2327 -3.48774 -173.416 9.88602 -2.03067 4.54188e-006 -4.6773e-006 -1.01744 1.47369 -17.6178 1.32022 -2.08226e-006 -2.09158e-006 -0.172801 18.0875 67.5903 -19.1926 -8.13649 25.2327 3.48774 
47.6895 93.128 1.53834 0.977327 5.29771 -1.98007 -0.133186 -2.24333 0.0444473 -0.264693 -0.483971 0.100976 -0.265955 1.16109 0.105423 0.0460365 -4.7046 0.188743 -0.226164 8.73763 0.196537 62.604 -6.65346 -4.25896 114.522 4.18319 13.2376 -2.30072e-006 3.91737e-007 -2.24468e-006 6.53962 14.3929 -1.69906 -1.4879e-006 1.94486e-006 -3 8.02887 -4.95141 0.697668 -58.5175 -10.938 6.81349 -120.333 3.80189 -14.6758 -2.70099e-014 -1.12313e-014 -0 -1.79027 19.7766 0.874082 6.06612e-006 1.00327e-006 2.99998 -8.02984 -4.95156 -0.697671 174.631 11.4344 1.11974 180 7.01567e-015 179.016 -179.641 14.6692 179.019 1.84119e-006 -1.13921e-006 -0.0187845 -16.8534 65.8116 17.8977 8.13649 25.2327 -3.48774 -173.391 9.92984 -2.00571 4.54188e-006 -4.6773e-006 -1.01587 1.50622 -17.51 1.32464 -2.08226e-006 -2.09158e-006 -0.171306 18.0918 67.5949 -19.1961 -8.13649 25.2327 3.48774 
47.6587 93.1903 1.52614 0.948359 5.35067 -1.98045 -0.13146 -2.24909 0.039546 -0.261384 -0.49548 0.0910066 -0.262525 1.14959 0.0953962 0.10353 -4.8133 0.199355 -0.226831 8.78806 0.217394 62.5876 -6.70837 -4.29031 114.607 4.20658 13.2205 -2.30072e-006 3.91737e-007 -2.24468e-006 6.52443 14.3913 -1.69795 -1.4879e-006 1.94486e-006 -3 8.02887 -4.95141 0.697668 -58.4059 -10.9959 6.85127 -120.422 3.84792 -14.6387 -5.96354e-015 -2.03754e-015 -3.18055e-015 -1.76521 19.7493 0.868446 6.06612e-006 1.00327e-006 2.99998 -8.02984 -4.95156 -0.697671 174.678 11.4706 1.08846 180 7.01568e-015 179.018 -179.658 14.588 179.025 1.84119e-006 -1.13921e-006 -0.0195538 -16.8491 65.8044 17.893 8.13649 25.2327 -3.48774 -173.36 9.9853 -1.98839 4.54188e-006 -4.6773e-006 -1.01435 1.53349 -17.428 1.32914 -2.08226e-006 -2.09158e-006 -0.170362 18.098 67.6018 -19.2018 -8.13649 25.2327 3.48774 
47.6848 93.2745 1.52166 0.915672 5.40808 -1.97965 -0.129031 -2.2552 0.0345926 -0.256672 -0.507699 0.0808691 -0.257689 1.13737 0.085178 0.166074 -4.92648 0.210144 -0.23226 8.8366 0.238973 62.5731 -6.76732 -4.32415 114.689 4.23414 13.1991 -2.30072e-006 3.91737e-007 -2.24468e-006 6.51201 14.3907 -1.69719 -1.4879e-006 1.94486e-006 -3 8.02887 -4.95141 0.697668 -58.293 -11.0565 6.89124 -120.51 3.89594 -14.595 8.77137e-015 9.49197e-015 -3.18055e-015 -1.74587 19.7202 0.863909 6.06612e-006 1.00327e-006 2.99998 -8.02984 -4.95156 -0.697671 174.728 11.5142 1.05773 180 7.01568e-015 179.02 -179.679 14.5204 179.031 1.84119e-006 -1.13921e-006 -0.019954 -16.8434 65.7953 17.8868 8.13649 25.2327 -3.48774 -173.322 10.0579 -1.98026 4.54188e-006 -4.6773e-006 -1.01283 1.55571 -17.3755 1.33368 -2.08226e-006 -2.09158e-006 -0.17007 18.1067 67.6117 -19.2102 -8.13649 25.2327 3.48774 
47.6537 93.3431 1.49935 0.879903 5.4691 -1.97791 -0.126007 -2.26157 0.0296093 -0.250773 -0.520421 0.0706178 -0.251665 1.12464 0.074826 0.232759 -5.0428 0.221076 -0.241697 8.88259 0.261125 62.5602 -6.82925 -4.35986 114.768 4.26538 13.174 -2.30072e-006 3.91737e-007 -2.24468e-006 6.50216 14.3913 -1.69673 -1.4879e-006 1.94486e-006 -3 8.02887 -4.95141 0.697668 -58.1798 -11.119 6.93274 -120.596 3.94574 -14.5456 -6.60959e-015 -3.65267e-015 3.18055e-015 -1.73183 19.6897 0.860393 6.06612e-006 1.00327e-006 2.99998 -8.02984 -4.95156 -0.697671 174.782 11.5645 1.02773 180 7.01569e-015 179.022 -179.704 14.4656 179.037 1.84119e-006 -1.13921e-006 -0.0200179 -16.8365 65.7845 17.8795 8.13649 25.2327 -3.48774 -173.278 10.1453 -1.98035 4.54188e-006 -4.6773e-006 -1.01131 1.57328 -17.35 1.33823 -2.08226e-006 -2.09158e-006 -0.170365 18.1175 67.6244 -19.221 -8.13649 25.2327 3.48774 
47.6768 93.4223 1.50163 0.841691 5.53287 -1.97547 -0.122495 -2.26808 0.0246181 -0.243902 -0.533442 0.0603067 -0.244668 1.11162 0.0643981 0.302678 -5.16096 0.232115 -0.254391 8.92539 0.283701 62.5485 -6.8931 -4.39681 114.844 4.29978 13.1455 -2.30072e-006 3.91737e-007 -2.24468e-006 6.49468 14.3931 -1.69657 -1.4879e-006 1.94486e-006 -3 8.02887 -4.95141 0.697668 -58.067 -11.1823 6.9751 -120.678 3.99708 -14.4915 -1.0548e-014 -5.49143e-015 -3.18055e-015 -1.72267 19.6582 0.857818 6.06612e-006 1.00327e-006 2.99998 -8.02984 -4.95156 -0.697671 174.839 11.6204 0.99864 180 7.01569e-015 179.024 -179.731 14.4228 179.043 1.84119e-006 -1.13921e-006 -0.0197784 -16.8287 65.7723 17.8711 8.13649 25.2327 -3.48774 -173.228 10.2454 -1.9877 4.54188e-006 -4.6773e-006 -1.0098 1.58665 -17.3489 1.34277 -2.08226e-006 -2.09158e-006 -0.171186 18.1303 67.6394 -19.2339 -8.13649 25.2327 3.48774 
47.651 93.4624 1.49473 0.801675 5.59857 -1.97254 -0.118605 -2.27465 0.0196411 -0.236274 -0.546556 0.0499899 -0.236913 1.09851 0.0539518 0.374921 -5.27964 0.243228 -0.269585 8.96435 0.306552 62.5379 -6.95784 -4.43437 114.916 4.33682 13.1141 -2.30072e-006 3.91737e-007 -2.24468e-006 6.48935 14.3959 -1.69669 -1.4879e-006 1.94486e-006 -3 8.02887 -4.95141 0.697668 -57.9557 -11.2457 7.01766 -120.758 4.04972 -14.4335 9.14409e-015 3.5657e-015 -3.18055e-015 -1.718 19.626 0.856107 6.06612e-006 1.00327e-006 2.99998 -8.02984 -4.95156 -0.697671 174.897 11.681 0.970629 180 7.0157e-015 179.026 -179.76 14.391 179.05 1.84119e-006 -1.13921e-006 -0.0192684 -16.82 65.759 17.862 8.13649 25.2327 -3.48774 -173.173 10.356 -2.00135 4.54188e-006 -4.6773e-006 -1.00831 1.59624 -17.3694 1.34728 -2.08226e-006 -2.09158e-006 -0.172468 18.1446 67.6563 -19.2485 -8.13649 25.2327 3.48774 
47.6755 93.5397 1.48593 0.760495 5.66534 -1.96937 -0.114443 -2.28115 0.0147004 -0.228104 -0.559556 0.0397214 -0.228618 1.08551 0.0435449 0.448576 -5.39753 0.254379 -0.286523 8.99883 0.329528 62.5281 -7.02239 -4.47192 114.986 4.37599 13.0804 -2.30072e-006 3.91737e-007 -2.24468e-006 6.48598 14.3998 -1.69706 -1.4879e-006 1.94486e-006 -3 8.02887 -4.95141 0.697668 -57.8465 -11.308 7.05976 -120.833 4.10343 -14.3725 8.4732e-015 7.86442e-015 -3.18055e-015 -1.71739 19.5938 0.85518 6.06612e-006 1.00327e-006 2.99998 -8.02984 -4.95156 -0.697671 174.956 11.7453 0.943877 180 7.0157e-015 179.028 -179.791 14.3695 179.056 1.84119e-006 -1.13921e-006 -0.0185206 -16.8107 65.7447 17.8522 8.13649 25.2327 -3.48774 -173.115 10.4748 -2.02032 4.54188e-006 -4.6773e-006 -1.00683 1.60247 -17.4089 1.35175 -2.08226e-006 -2.09158e-006 -0.174151 18.1602 67.6749 -19.2646 -8.13649 25.2327 3.48774 
47.6488 93.5852 1.47403 0.718793 5.73234 -1.9662 -0.110117 -2.2875 0.00981818 -0.219608 -0.572238 0.0295553 -0.219997 1.07283 0.033235 0.522731 -5.5133 0.265533 -0.304448 9.02817 0.352479 62.5188 -7.08573 -4.50881 115.053 4.41678 13.0446 -2.30072e-006 3.91737e-007 -2.24468e-006 6.48436 14.4049 -1.69768 -1.4879e-006 1.94486e-006 -3 8.02887 -4.95141 0.697668 -57.7406 -11.3683 7.10073 -120.902 4.15797 -14.3095 -3.07386e-014 -1.26166e-014 -9.54166e-015 -1.72045 19.5619 0.854958 6.06612e-006 1.00327e-006 2.99998 -8.02984 -4.95156 -0.697671 175.016 11.8124 0.918564 180 7.0157e-015 179.03 -179.823 14.3575 179.062 1.84119e-006 -1.13921e-006 -0.0175679 -16.801 65.7299 17.842 8.13649 25.2327 -3.48774 -173.055 10.5997 -2.04365 4.54188e-006 -4.6773e-006 -1.00538 1.60576 -17.4649 1.35616 -2.08226e-006 -2.09158e-006 -0.17617 18.1768 67.6947 -19.2817 -8.13649 25.2327 3.48774 
47.6656 93.6415 1.47075 0.677212 5.79874 -1.96324 -0.105736 -2.29358 0.00501643 -0.211 -0.584396 0.0195457 -0.211266 1.06067 0.0230798 0.59647 -5.62566 0.276655 -0.322599 9.05172 0.375255 62.5099 -7.14678 -4.54442 115.117 4.45868 13.0074 -2.30072e-006 3.91737e-007 -2.24468e-006 6.48429 14.4111 -1.69851 -1.4879e-006 1.94486e-006 -3 8.02887 -4.95141 0.697668 -57.6387 -11.4258 7.13989 -120.966 4.21311 -14.2452 -8.32023e-015 -5.74379e-015 -0 -1.72675 19.5306 0.855363 6.06612e-006 1.00327e-006 2.99998 -8.02984 -4.95156 -0.697671 175.075 11.8814 0.894867 180 7.01571e-015 179.032 -179.856 14.3541 179.068 1.84119e-006 -1.13921e-006 -0.0164433 -16.7909 65.7146 17.8315 8.13649 25.2327 -3.48774 -172.993 10.7285 -2.07038 4.54188e-006 -4.6773e-006 -1.00396 1.60654 -17.5346 1.36049 -2.08226e-006 -2.09158e-006 -0.178462 18.194 67.7154 -19.2996 -8.13649 25.2327 3.48774 
